<svg width="120" height="120" viewBox="0 0 120 120" fill="none" xmlns="http://www.w3.org/2000/svg">
<g clip-path="url(#clip0_870_598)">
<rect width="119.9" height="120" fill="#001F27"/>
<path opacity="0.2" d="M-54.0935 60.8262L-32.8903 54.3762M-54.0935 60.8262L-60.6001 71M-54.0935 60.8262L-40.2887 43.3477M-54.0935 60.8262L-51.9702 71.7593L-60.6001 71M-32.8903 54.3762L-52.0453 71.7129C-51.923 71.7912 -35.0247 83.5672 -18.6332 94.9918M-32.8903 54.3762L-40.2887 43.3477M-32.8903 54.3762C-32.8903 54.3762 -14.4794 77.8935 -13.0247 79.1778M-32.8903 54.3762C-23.5946 61.404 -14.4285 78.0247 -13.0247 79.1778M-32.8903 54.3762L-18.6332 94.9918M-32.8903 54.3762L11.9256 117.201M-32.8903 54.3762L38.7607 61.7686M-40.2887 43.3477L-15.9936 27.4648M-40.2887 43.3477L-24.09 14.4041M-40.2887 43.3477L8.21266 38.1071M-13.0247 79.1778C-12.9862 79.2117 -13.0348 79.1708 -13.0232 79.1807M-13.0247 79.1778C-13.0132 79.1886 -13.0129 79.1894 -13.0232 79.1807M-13.0247 79.1778C-13.0378 79.1654 -12.9887 79.2074 -13.0247 79.1778ZM-13.0247 79.1778L-13.0232 79.1807M-13.0247 79.1778L124.459 136.645M-13.0247 79.1778L30.6584 79.3523M-13.0247 79.1778L38.7607 61.7686M-13.0232 79.1807L11.9256 117.201M-18.6332 94.9918C-11.1089 100.236 6.28661 113.271 11.9256 117.201M11.9256 117.201L34.5874 116.622M124.459 136.645L57.1984 146.14M124.459 136.645C123.276 135.349 64.877 98.5528 30.6584 79.3523M124.459 136.645L34.5874 116.622M124.459 136.645L109.478 159.903M124.459 136.645L84.2094 87.9001M124.459 136.645L136.499 117.653M57.1984 146.14L34.5874 116.622M57.1984 146.14L109.478 159.903M57.1984 146.14L100.68 173.988L109.478 159.903M57.1984 146.14L-60.6001 71M30.6584 79.3523L38.7607 61.7686M30.6584 79.3523L84.2094 87.9001M-15.9936 27.4648L34.827 27.1274M-15.9936 27.4648L8.91716 -37.2064M-15.9936 27.4648L-24.09 14.4041M34.827 27.1274L8.91716 -37.2064M34.827 27.1274L97.3147 42.5408M34.827 27.1274L45.6447 18.8953M34.827 27.1274L-21.711 18.2419M34.827 27.1274L51.7 41.5365M34.827 27.1274L8.21266 38.1071M8.91716 -37.2064L-21.711 18.2419M8.91716 -37.2064L29.1728 -47.8606M8.91716 -37.2064L-24.09 14.4041M8.91716 -37.2064L169.754 65.6554M97.3147 42.5408L169.754 65.6554M97.3147 42.5408L45.6447 18.8953M97.3147 42.5408L29.1728 -47.8606M169.754 65.6554L29.1728 -47.8606M169.754 65.6554L147.714 100.117M169.754 65.6554L159.556 68.4644M169.754 65.6554L51.7 41.5365M45.6447 18.8953L-21.711 18.2419M45.6447 18.8953L29.1728 -47.8606M-21.711 18.2419L29.1728 -47.8606M38.7607 61.7686L147.714 100.117M38.7607 61.7686L159.556 68.4644M38.7607 61.7686L8.21266 38.1071M147.714 100.117L84.2094 87.9001M147.714 100.117L159.556 68.4644M147.714 100.117L136.499 117.653M84.2094 87.9001L136.499 117.653M159.556 68.4644L8.21266 38.1071M8.21266 38.1071L51.7 41.5365" stroke="#00E38F" stroke-width="0.5"/>
<path d="M54.9634 90.4599C40.2245 87.9796 29 75.2599 29 59.9537C29 54.0148 30.6921 48.4627 33.6246 43.7449L36.6412 50.3437C35.4085 53.3094 34.7271 56.5481 34.7271 59.9537C34.7271 71.0427 41.9319 80.4631 51.9544 83.8762L54.9634 90.4675V90.4599Z" fill="#00E38F"/>
<path d="M91.6 29L82.8332 48.182C81.8838 46.392 80.72 44.7309 79.3801 43.2291C74.7096 37.9804 67.8647 34.6735 60.2387 34.6735C53.4703 34.6735 47.3145 37.2826 42.7512 41.5453L40.2781 36.1373C45.6989 31.6774 52.6511 29 60.2464 29C68.6686 29 76.3099 32.2994 81.9298 37.6695L85.8882 29H91.6Z" fill="#00E38F"/>
<path d="M91.4545 61.4024C91.3626 63.3365 91.0946 65.2327 90.6582 67.0607C87.8252 78.9916 78.0325 88.2603 65.7514 90.422L68.7834 83.7776C76.4553 81.0774 82.435 74.8503 84.7397 67.0607H74.2119L60.3459 97.4L29.0994 29H34.8112L60.3459 84.9002L71.0727 61.41H91.4468L91.4545 61.4024Z" fill="#00E38F"/>
</g>
<defs>
<clipPath id="clip0_870_598">
<rect width="120" height="120" rx="60" fill="white"/>
</clipPath>
</defs>
</svg>
