<svg width="275" height="300" viewBox="0 0 275 300" fill="none" xmlns="http://www.w3.org/2000/svg">
<path d="M113.713 269.561C49.1605 258.683 0 202.894 0 135.762C0 109.714 7.41097 85.3626 20.2544 64.6707L33.4667 93.6128C28.0678 106.62 25.0833 120.825 25.0833 135.762C25.0833 184.398 56.6386 225.715 100.534 240.685L113.713 269.594V269.561Z" fill="#00E38F"/>
<path d="M274.172 0L235.776 84.1317C231.618 76.2808 226.521 68.9953 220.652 62.4085C200.197 39.3879 170.217 24.8836 136.818 24.8836C107.174 24.8836 80.2128 36.3273 60.2266 55.0233L49.3952 31.3041C73.1371 11.7432 103.586 0 136.851 0C173.739 0 207.205 14.4711 231.819 38.024L249.156 0H274.172Z" fill="#00E38F"/>
<path d="M273.535 142.116C273.132 150.599 271.959 158.916 270.047 166.933C257.64 219.261 214.75 259.914 160.962 269.395L174.241 240.253C207.842 228.41 234.032 201.098 244.126 166.933H198.017L137.287 300L0.435546 0H25.4518L137.287 245.176L184.268 142.149H273.501L273.535 142.116Z" fill="#00E38F"/>
</svg>
